<?xml version="1.0" encoding="UTF-8"?>
<!DOCTYPE svg PUBLIC "-//W3C//DTD SVG 1.1//EN" "http://www.w3.org/Graphics/SVG/1.1/DTD/svg11.dtd">
<svg xmlns="http://www.w3.org/2000/svg" version="1.1" width="203px" height="174px" style="shape-rendering:geometricPrecision; text-rendering:geometricPrecision; image-rendering:optimizeQuality; fill-rule:evenodd; clip-rule:evenodd" xmlns:xlink="http://www.w3.org/1999/xlink">
<g><path style="opacity:1" fill="#fcfcfc" d="M -0.5,-0.5 C 67.1667,-0.5 134.833,-0.5 202.5,-0.5C 202.5,57.5 202.5,115.5 202.5,173.5C 134.833,173.5 67.1667,173.5 -0.5,173.5C -0.5,115.5 -0.5,57.5 -0.5,-0.5 Z"/></g>
<g><path style="opacity:1" fill="#8a8a8a" d="M 115.5,7.5 C 106.5,6.16667 97.5,6.16667 88.5,7.5C 89.2625,6.73209 90.2625,6.23209 91.5,6C 98.5,5.33333 105.5,5.33333 112.5,6C 113.737,6.23209 114.737,6.73209 115.5,7.5 Z"/></g>
<g><path style="opacity:1" fill="#0a0d0e" d="M 115.5,7.5 C 149.291,14.1177 171.791,33.7844 183,66.5C 187.948,84.3169 187.448,101.984 181.5,119.5C 178.5,119.5 175.5,119.5 172.5,119.5C 184.132,85.8595 177.132,56.6929 151.5,32C 139.047,21.7807 124.714,15.9473 108.5,14.5C 105.686,13.8353 102.686,13.502 99.5,13.5C 94.576,13.3541 89.9093,14.0207 85.5,15.5C 80.3308,15.999 75.6642,17.6657 71.5,20.5C 42.1746,34.4487 26.8413,57.782 25.5,90.5C 25.6667,94.1667 25.8333,97.8333 26,101.5C 27.61,107.492 29.11,113.492 30.5,119.5C 27.8333,119.5 25.1667,119.5 22.5,119.5C 10.2153,76.2703 22.5486,42.1037 59.5,17C 63.8789,14.3059 68.5456,12.4726 73.5,11.5C 77.3948,10.5376 81.0615,9.20427 84.5,7.5C 85.8333,7.5 87.1667,7.5 88.5,7.5C 97.5,6.16667 106.5,6.16667 115.5,7.5 Z"/></g>
<g><path style="opacity:1" fill="#757575" d="M 84.5,7.5 C 81.0615,9.20427 77.3948,10.5376 73.5,11.5C 76.6257,9.01034 80.2924,7.677 84.5,7.5 Z"/></g>
<g><path style="opacity:1" fill="#194c58" d="M 108.5,14.5 C 100.817,14.5234 93.1499,14.8567 85.5,15.5C 89.9093,14.0207 94.576,13.3541 99.5,13.5C 102.686,13.502 105.686,13.8353 108.5,14.5 Z"/></g>
<g><path style="opacity:1" fill="#49b4cc" d="M 108.5,14.5 C 124.714,15.9473 139.047,21.7807 151.5,32C 177.132,56.6929 184.132,85.8595 172.5,119.5C 169.15,119.665 165.817,119.498 162.5,119C 176.469,82.2418 167.136,52.9085 134.5,31C 112.83,21.0004 91.1638,21.0004 69.5,31C 37.1239,52.9894 27.4572,82.4894 40.5,119.5C 37.1667,119.5 33.8333,119.5 30.5,119.5C 29.11,113.492 27.61,107.492 26,101.5C 25.8333,97.8333 25.6667,94.1667 25.5,90.5C 26.8413,57.782 42.1746,34.4487 71.5,20.5C 76.4225,19.3638 81.0891,17.6971 85.5,15.5C 93.1499,14.8567 100.817,14.5234 108.5,14.5 Z"/></g>
<g><path style="opacity:1" fill="#2f7485" d="M 85.5,15.5 C 81.0891,17.6971 76.4225,19.3638 71.5,20.5C 75.6642,17.6657 80.3308,15.999 85.5,15.5 Z"/></g>
<g><path style="opacity:1" fill="#1a1a1a" d="M 84.5,43.5 C 85.4972,43.4701 86.1639,43.9701 86.5,45C 82.2294,52.395 81.3961,60.2283 84,68.5C 85.883,69.6526 86.7163,71.3193 86.5,73.5C 85.1779,73.67 84.0113,73.3366 83,72.5C 76.7423,62.4305 77.2423,52.7639 84.5,43.5 Z"/></g>
<g><path style="opacity:1" fill="#1b1b1b" d="M 117.5,43.5 C 119.017,43.5106 120.184,44.1772 121,45.5C 126.583,53.9266 126.916,62.5933 122,71.5C 117.046,74.0657 116.379,73.0657 120,68.5C 121.456,62.9034 121.789,57.2367 121,51.5C 119.007,49.1825 117.841,46.5158 117.5,43.5 Z"/></g>
<g><path style="opacity:1" fill="#141414" d="M 89.5,47.5 C 90.5,47.5 91.5,47.5 92.5,47.5C 90.781,51.1247 89.4477,54.9581 88.5,59C 89.0076,63.2378 90.341,67.0712 92.5,70.5C 91.1779,70.67 90.0113,70.3366 89,69.5C 84.1907,61.975 84.3573,54.6416 89.5,47.5 Z"/></g>
<g><path style="opacity:1" fill="#171717" d="M 112.5,47.5 C 113.496,47.4142 114.329,47.7476 115,48.5C 119.304,54.9004 119.637,61.567 116,68.5C 114.89,70.0368 113.39,70.7035 111.5,70.5C 113.218,66.8774 114.551,63.0441 115.5,59C 114.923,55.3508 113.589,52.0175 111.5,49C 112.056,48.6174 112.389,48.1174 112.5,47.5 Z"/></g>
<g><path style="opacity:1" fill="#131313" d="M 97.5,49.5 C 107.935,48.4349 112.435,53.1015 111,63.5C 108.868,65.7931 106.701,67.9598 104.5,70C 109.872,86.3247 114.539,102.825 118.5,119.5C 116.801,119.66 115.134,119.494 113.5,119C 106.573,115.62 99.7395,112.12 93,108.5C 90.4417,111.661 88.9417,115.328 88.5,119.5C 87.5,119.5 86.5,119.5 85.5,119.5C 89.9136,103.102 94.5803,86.7683 99.5,70.5C 97.4758,68.063 95.3091,65.7297 93,63.5C 91.4543,57.794 92.9543,53.1273 97.5,49.5 Z"/></g>
<g><path style="opacity:1" fill="#ececec" d="M 101.5,74.5 C 104,79.5257 106,84.859 107.5,90.5C 103.543,94.9591 98.876,98.1257 93.5,100C 96.4662,91.6011 99.1328,83.1011 101.5,74.5 Z"/></g>
<g><path style="opacity:1" fill="#f2f2f2" d="M 99.5,52.5 C 106.825,51.9924 109.658,55.3258 108,62.5C 104,66.5 100,66.5 96,62.5C 94.7563,58.191 95.9229,54.8577 99.5,52.5 Z"/></g>
<g><path style="opacity:1" fill="#f2f2f2" d="M 106.5,95.5 C 107.496,95.4142 108.329,95.7476 109,96.5C 111.113,102.818 112.78,109.152 114,115.5C 107.42,112.127 100.92,108.627 94.5,105C 98.7514,102.055 102.751,98.888 106.5,95.5 Z"/></g>
<g><path style="opacity:1" fill="#111111" d="M 9.5,146.5 C 13.5138,146.334 17.5138,146.501 21.5,147C 29.3978,149.29 32.2311,154.457 30,162.5C 27.1988,168.618 22.3654,171.284 15.5,170.5C 10.0451,171.022 5.87843,169.022 3,164.5C 2.33333,160.5 2.33333,156.5 3,152.5C 4.49363,149.686 6.6603,147.686 9.5,146.5 Z"/></g>
<g><path style="opacity:1" fill="#121212" d="M 38.5,146.5 C 46.8333,146.5 55.1667,146.5 63.5,146.5C 63.5,148.5 63.5,150.5 63.5,152.5C 60.5,152.5 57.5,152.5 54.5,152.5C 54.5,158.5 54.5,164.5 54.5,170.5C 52.1667,170.5 49.8333,170.5 47.5,170.5C 47.5,164.5 47.5,158.5 47.5,152.5C 44.5,152.5 41.5,152.5 38.5,152.5C 38.5,150.5 38.5,148.5 38.5,146.5 Z"/></g>
<g><path style="opacity:1" fill="#101010" d="M 72.5,146.5 C 74.5,146.5 76.5,146.5 78.5,146.5C 78.5,149.5 78.5,152.5 78.5,155.5C 80.1992,155.66 81.8659,155.494 83.5,155C 85.5977,152.146 87.931,149.479 90.5,147C 92.9018,146.186 95.2351,146.353 97.5,147.5C 94.1218,150.876 91.1218,154.543 88.5,158.5C 91.1218,162.457 94.1218,166.124 97.5,169.5C 95.2351,170.647 92.9018,170.814 90.5,170C 88.4023,167.146 86.069,164.479 83.5,162C 81.8659,161.506 80.1992,161.34 78.5,161.5C 78.5,164.5 78.5,167.5 78.5,170.5C 76.5,170.5 74.5,170.5 72.5,170.5C 72.5,162.5 72.5,154.5 72.5,146.5 Z"/></g>
<g><path style="opacity:1" fill="#0b0b0b" d="M 111.5,169.5 C 109.236,170.219 106.903,170.552 104.5,170.5C 104.5,168.5 104.5,166.5 104.5,164.5C 105.822,164.67 106.989,164.337 108,163.5C 108.499,157.843 108.666,152.176 108.5,146.5C 115.833,146.5 123.167,146.5 130.5,146.5C 130.5,154.5 130.5,162.5 130.5,170.5C 128.5,170.5 126.5,170.5 124.5,170.5C 124.5,164.5 124.5,158.5 124.5,152.5C 121.167,152.5 117.833,152.5 114.5,152.5C 114.666,157.179 114.499,161.845 114,166.5C 113.623,167.942 112.79,168.942 111.5,169.5 Z"/></g>
<g><path style="opacity:1" fill="#0d0d0d" d="M 160.5,170.5 C 160.827,165.456 160.494,160.456 159.5,155.5C 158.702,155.957 158.369,156.624 158.5,157.5C 154.699,161.473 151.032,165.64 147.5,170C 145.527,170.495 143.527,170.662 141.5,170.5C 141.5,162.5 141.5,154.5 141.5,146.5C 143.5,146.5 145.5,146.5 147.5,146.5C 147.334,151.511 147.501,156.511 148,161.5C 152.194,156.94 156.028,152.106 159.5,147C 161.81,146.503 164.143,146.337 166.5,146.5C 166.5,154.5 166.5,162.5 166.5,170.5C 164.5,170.5 162.5,170.5 160.5,170.5 Z"/></g>
<g><path style="opacity:1" fill="#141415" d="M 176.5,146.5 C 178.833,146.5 181.167,146.5 183.5,146.5C 183.5,149.5 183.5,152.5 183.5,155.5C 188.181,154.522 191.847,151.855 194.5,147.5C 196.833,146.167 199.167,146.167 201.5,147.5C 198.739,151.35 195.739,155.017 192.5,158.5C 195.878,161.876 198.878,165.543 201.5,169.5C 199.167,170.833 196.833,170.833 194.5,169.5C 192.31,167.144 190.31,164.644 188.5,162C 186.866,161.506 185.199,161.34 183.5,161.5C 183.5,164.5 183.5,167.5 183.5,170.5C 181.167,170.5 178.833,170.5 176.5,170.5C 176.5,162.5 176.5,154.5 176.5,146.5 Z"/></g>
<g><path style="opacity:1" fill="#f4f4f4" d="M 11.5,152.5 C 15.3076,152.163 18.9743,152.663 22.5,154C 25.486,160.902 23.3194,164.402 16,164.5C 9.28243,164.426 6.9491,161.093 9,154.5C 9.9947,153.934 10.828,153.267 11.5,152.5 Z"/></g>
<g><path style="opacity:1" fill="#a9a9a9" d="M 160.5,170.5 C 159.833,166.167 159.167,161.833 158.5,157.5C 158.369,156.624 158.702,155.957 159.5,155.5C 160.494,160.456 160.827,165.456 160.5,170.5 Z"/></g>
<g><path style="opacity:1" fill="#b8b8b8" d="M 104.5,164.5 C 104.5,166.5 104.5,168.5 104.5,170.5C 106.903,170.552 109.236,170.219 111.5,169.5C 111.389,170.117 111.056,170.617 110.5,171C 108.19,171.497 105.857,171.663 103.5,171.5C 103.198,168.941 103.532,166.607 104.5,164.5 Z"/></g>
</svg>
