<?xml version="1.0" standalone="no"?>
<!DOCTYPE svg PUBLIC "-//W3C//DTD SVG 20010904//EN"
 "http://www.w3.org/TR/2001/REC-SVG-20010904/DTD/svg10.dtd">
<svg version="1.0" xmlns="http://www.w3.org/2000/svg"
 width="512.000000pt" height="512.000000pt" viewBox="0 0 512.000000 512.000000"
 preserveAspectRatio="xMidYMid meet">

<g transform="translate(0.000000,512.000000) scale(0.100000,-0.100000)"
fill="#000000" stroke="none">
<path d="M235 4831 c-76 -32 -90 -140 -24 -195 l31 -26 217 0 217 0 292 -1227
c224 -939 289 -1229 280 -1235 -7 -4 -22 -8 -33 -8 -11 0 -53 -16 -94 -35
-283 -136 -342 -515 -111 -728 75 -69 148 -105 251 -120 l80 -11 -35 -18 c-59
-30 -161 -133 -193 -195 -90 -170 -85 -365 15 -519 176 -272 559 -313 782 -85
226 232 188 601 -81 780 l-61 41 1098 0 1099 0 -62 -41 c-111 -72 -187 -181
-218 -311 -84 -355 238 -682 597 -607 133 28 282 139 340 254 78 154 78 326 1
479 -33 64 -124 160 -188 197 l-50 29 85 0 c105 0 147 18 174 74 17 36 18 43
5 79 -8 22 -27 50 -42 61 l-28 21 -1672 5 -1672 5 -32 23 c-76 54 -108 120
-101 208 6 68 46 129 108 164 l45 25 1495 5 1495 5 67 32 c37 17 87 50 111 72
88 81 89 84 318 1022 116 475 210 881 210 901 0 44 -22 80 -57 96 -17 9 -140
12 -410 12 -362 0 -385 -1 -380 -17 34 -115 38 -368 8 -508 -95 -445 -421
-786 -861 -902 -130 -34 -354 -43 -486 -19 -640 118 -1064 710 -960 1341 8 50
15 93 15 97 0 4 -174 9 -387 10 l-388 3 -83 350 c-48 201 -91 361 -101 375
-34 48 -48 50 -336 49 -148 0 -279 -4 -290 -8z m1401 -3786 c127 -38 211 -178
184 -309 -43 -208 -287 -293 -444 -155 -70 62 -91 108 -91 204 0 92 18 136 82
198 72 69 169 92 269 62z m2636 -5 c61 -22 120 -75 151 -134 31 -58 31 -184 0
-242 -32 -61 -106 -121 -171 -140 -110 -32 -235 13 -299 109 -148 221 71 500
319 407z"/>
<path d="M2780 4685 c-182 -39 -330 -117 -464 -244 -122 -117 -212 -270 -258
-436 -31 -116 -31 -354 0 -470 91 -331 341 -579 677 -671 107 -29 361 -27 469
4 381 110 642 417 685 805 50 448 -236 869 -679 997 -97 28 -331 37 -430 15z
m234 -370 c60 -28 66 -53 66 -249 l0 -176 171 0 c189 0 221 -8 252 -59 33 -56
17 -125 -39 -162 -26 -17 -48 -19 -206 -19 l-178 0 0 -175 c0 -198 -6 -221
-64 -249 -45 -21 -74 -20 -114 4 -54 33 -62 68 -62 255 l0 165 -174 0 c-164 0
-175 1 -207 23 -48 32 -67 89 -46 139 29 69 58 78 255 78 l172 0 0 165 c0 187
8 222 62 255 39 24 69 25 112 5z"/>
</g>
</svg>
